<svg height="16" width="16" xmlns="http://www.w3.org/2000/svg"><path d="m8 1c-3.86 0-7 3.14-7 7s3.14 7 7 7 7-3.14 7-7-3.14-7-7-7zm-2.5058594 3.9941406a.5.5 0 0 1 .359375.1523438l2.1464844 2.1464844 2.146484-2.1464844a.5.5 0 0 1 .34375-.1503906.5.5 0 0 1 .363282.8574218l-2.1464848 2.1464844 2.1464848 2.146484a.50027817.50027817 0 1 1 -.707032.707032l-2.146484-2.1464848-2.1464844 2.1464848a.50027817.50027817 0 0 1 -.7070312-.707032l2.1464844-2.146484-2.1464844-2.1464844a.5.5 0 0 1 .3476562-.859375z" fill="#666"/></svg>